<?xml version="1.0" encoding="UTF-8" standalone="no"?>
<svg width="145px" height="145px" viewBox="0 0 145 145" version="1.1" xmlns="http://www.w3.org/2000/svg" xmlns:xlink="http://www.w3.org/1999/xlink">
    <!-- Generator: Sketch 39.1 (31720) - http://www.bohemiancoding.com/sketch -->
    <title>blog-profile</title>
    <desc>Created with Sketch.</desc>
    <defs></defs>
    <g id="Page-1" stroke="none" stroke-width="1" fill="none" fill-rule="evenodd">
        <g id="blog-profile">
            <g>
                <rect id="Rectangle" fill="#D8D8D8" x="0" y="0" width="145" height="145"></rect>
                <path d="M80.489679,73.3330998 C95.1938213,77.3921907 93.2024954,95.5512816 93.2759009,95.5512816 L51.7206799,95.5512816 C51.7518709,95.5512816 50.0158618,77.6058271 64.5069018,73.5467362 C66.5159381,74.4660989 67.9165595,75.4892675 72.3917286,75.4694635 C76.866919,75.4496594 80.489679,73.3330998 80.489679,73.3330998 L80.489679,73.3330998 Z M72.6068177,82.7330998 L72.6068177,86.9068921 L79.340764,86.9068921 L83.247169,82.9481035 L83.247169,82.7330998 L72.6068177,82.7330998 L72.6068177,82.7330998 Z M72.3917286,71.8376453 C78.864889,71.8376453 84.112439,66.6248112 84.112439,60.3012816 C84.112439,53.7641157 78.864889,48.5512816 72.3917286,48.5512816 C65.9185681,48.5512816 60.6710395,53.7641157 60.6710395,60.3012816 C60.6710395,66.6248112 65.9185681,71.8376453 72.3917286,71.8376453 L72.3917286,71.8376453 Z" id="Clip-4803" fill="#E9E9E9"></path>
            </g>
        </g>
    </g>
</svg>